<svg version="1.2" xmlns="http://www.w3.org/2000/svg" viewBox="0 0 120 121" width="120" height="121"><style>.a{fill:#ffb534}</style><path class="a" d="m60 121q-0.6 0-1.1 0c-0.4 0-0.6-0.3-0.6-0.6 0-0.3 0.3-0.6 0.6-0.6q2 0 4.1-0.1c0.3 0 0.6 0.3 0.6 0.6 0 0.3-0.3 0.6-0.6 0.6q-1.5 0.1-3 0.1zm-5.2-0.2q0 0-0.1 0-2-0.2-4.1-0.5c-0.3-0.1-0.5-0.4-0.5-0.7 0.1-0.3 0.4-0.6 0.7-0.5q2 0.3 4 0.5c0.4 0 0.6 0.3 0.6 0.6-0.1 0.3-0.3 0.6-0.6 0.6zm12.3-0.2c-0.3 0-0.6-0.2-0.6-0.5 0-0.4 0.2-0.7 0.5-0.7q2-0.2 4-0.6c0.3-0.1 0.7 0.1 0.7 0.4 0.1 0.4-0.1 0.7-0.5 0.7q-2 0.4-4.1 0.7 0 0 0 0zm-20.4-1.1q-0.1 0-0.2 0-2-0.5-4-1.1c-0.3-0.1-0.5-0.4-0.4-0.7 0.1-0.4 0.5-0.5 0.8-0.4q1.9 0.6 3.9 1c0.3 0.1 0.5 0.4 0.4 0.7 0 0.3-0.3 0.5-0.5 0.5zm28.4-0.5c-0.2 0-0.5-0.1-0.5-0.4-0.1-0.3 0.1-0.7 0.4-0.7q2-0.6 3.9-1.2c0.3-0.1 0.6 0 0.7 0.4 0.1 0.3 0 0.6-0.3 0.7q-2 0.7-4 1.2-0.1 0-0.2 0zm-36.3-1.9q-0.1 0-0.2-0.1-1.9-0.7-3.8-1.6c-0.3-0.1-0.4-0.5-0.3-0.8 0.1-0.3 0.5-0.4 0.8-0.3q1.8 0.9 3.7 1.6c0.3 0.1 0.5 0.5 0.4 0.8-0.1 0.2-0.4 0.4-0.6 0.4zm44.1-0.7c-0.2 0-0.4-0.2-0.5-0.4-0.2-0.3 0-0.6 0.3-0.8q1.9-0.8 3.7-1.7c0.3-0.1 0.6 0 0.8 0.3 0.1 0.3 0 0.6-0.3 0.8q-1.9 0.9-3.8 1.7-0.1 0.1-0.2 0.1zm-51.5-2.8q-0.2 0-0.3-0.1-1.8-1-3.6-2.1c-0.3-0.2-0.3-0.6-0.2-0.8 0.2-0.3 0.6-0.4 0.8-0.2q1.8 1.1 3.5 2.1c0.3 0.1 0.4 0.5 0.3 0.8-0.1 0.2-0.3 0.3-0.5 0.3zm58.8-0.9c-0.2 0-0.4-0.1-0.5-0.3-0.1-0.3 0-0.7 0.2-0.8q1.8-1.1 3.5-2.2c0.2-0.2 0.6-0.2 0.8 0.1 0.2 0.3 0.1 0.6-0.2 0.8q-1.7 1.2-3.5 2.3-0.1 0.1-0.3 0.1zm-65.7-3.6q-0.2 0-0.4-0.1-1.7-1.3-3.2-2.6c-0.3-0.2-0.3-0.6-0.1-0.9 0.2-0.2 0.6-0.2 0.8 0q1.6 1.3 3.2 2.5c0.3 0.2 0.3 0.6 0.1 0.9q-0.2 0.2-0.4 0.2zm72.5-1.1q-0.3 0-0.5-0.3c-0.2-0.2-0.1-0.6 0.1-0.8q1.6-1.3 3.1-2.7c0.3-0.2 0.6-0.2 0.8 0.1 0.3 0.2 0.2 0.6 0 0.8q-1.5 1.4-3.1 2.7-0.2 0.2-0.4 0.2zm-78.8-4.3q-0.2 0-0.4-0.2-1.5-1.4-2.8-3c-0.2-0.2-0.2-0.6 0-0.8 0.3-0.3 0.6-0.2 0.8 0q1.4 1.6 2.8 3c0.3 0.2 0.3 0.6 0 0.8q-0.1 0.2-0.4 0.2zm84.8-1.3q-0.2 0-0.4-0.2c-0.2-0.2-0.2-0.6 0-0.8q1.4-1.5 2.7-3.1c0.2-0.2 0.6-0.3 0.8-0.1 0.3 0.2 0.3 0.6 0.1 0.9q-1.3 1.6-2.7 3.1-0.2 0.2-0.5 0.2zm-90.2-4.9q-0.3 0-0.5-0.2-1.2-1.7-2.4-3.4c-0.2-0.3-0.1-0.7 0.2-0.9 0.3-0.1 0.6-0.1 0.8 0.2q1.1 1.7 2.4 3.4c0.2 0.2 0.1 0.6-0.1 0.8q-0.2 0.1-0.4 0.1zm95.5-1.5q-0.2 0-0.4-0.1c-0.2-0.2-0.3-0.6-0.1-0.8q1.2-1.7 2.3-3.4c0.1-0.3 0.5-0.4 0.8-0.2 0.2 0.1 0.3 0.5 0.2 0.8q-1.1 1.7-2.3 3.5-0.2 0.2-0.5 0.2zm-100-5.4c-0.2 0-0.4-0.1-0.5-0.3q-1.1-1.8-2-3.7c-0.1-0.3 0-0.6 0.3-0.8 0.3-0.1 0.7 0 0.8 0.3q0.9 1.8 1.9 3.6c0.1 0.3 0 0.7-0.2 0.8q-0.2 0.1-0.3 0.1zm104.3-1.6q-0.1 0-0.3-0.1c-0.3-0.2-0.4-0.5-0.2-0.8q0.9-1.8 1.8-3.7c0.1-0.3 0.4-0.4 0.7-0.3 0.3 0.1 0.5 0.5 0.3 0.8q-0.8 1.9-1.8 3.7c-0.1 0.2-0.3 0.4-0.5 0.4zm-107.9-5.8c-0.2 0-0.4-0.2-0.5-0.4q-0.8-2-1.4-4c-0.1-0.3 0.1-0.6 0.4-0.7 0.3-0.1 0.6 0.1 0.7 0.4q0.6 1.9 1.4 3.8c0.1 0.3-0.1 0.7-0.4 0.8q-0.1 0.1-0.2 0.1zm111.2-1.8q-0.1 0-0.2-0.1c-0.3-0.1-0.4-0.4-0.3-0.7q0.7-1.9 1.2-3.9c0.1-0.3 0.4-0.5 0.7-0.4 0.3 0.1 0.5 0.4 0.4 0.7q-0.5 2-1.2 4c-0.1 0.2-0.3 0.4-0.6 0.4zm-113.7-6.1c-0.2 0-0.5-0.2-0.5-0.5q-0.5-2-0.9-4.1c0-0.3 0.2-0.6 0.5-0.7 0.3 0 0.6 0.2 0.7 0.5q0.3 2 0.8 4c0.1 0.4-0.1 0.7-0.4 0.8q-0.1 0-0.2 0zm116-1.9q-0.1 0-0.2 0c-0.3-0.1-0.5-0.4-0.4-0.7q0.4-2 0.7-4c0-0.4 0.3-0.6 0.6-0.5 0.4 0 0.6 0.3 0.5 0.6q-0.2 2.1-0.7 4.1c0 0.3-0.3 0.5-0.5 0.5zm-117.3-6.3c-0.3 0-0.6-0.2-0.6-0.5q-0.2-2.1-0.3-4.2c0-0.3 0.3-0.6 0.6-0.6 0.3 0 0.6 0.2 0.6 0.6q0 2 0.2 4.1c0.1 0.3-0.2 0.6-0.5 0.6q0 0 0 0zm118.4-1.9q0 0-0.1 0c-0.3 0-0.5-0.3-0.5-0.6q0.1-2.1 0.1-4.1 0-1.9-0.1-3.8c0-0.3 0.2-0.6 0.6-0.6 0.3 0 0.6 0.2 0.6 0.6q0.1 1.9 0.1 3.8 0 2.1-0.1 4.2c-0.1 0.3-0.3 0.5-0.6 0.5zm-118.7-6.4q0 0 0 0c-0.3 0-0.6-0.2-0.6-0.6q0.1-2.1 0.3-4.1c0-0.4 0.3-0.6 0.7-0.6 0.3 0.1 0.5 0.4 0.5 0.7q-0.2 2-0.3 4.1c0 0.3-0.3 0.5-0.6 0.5zm118.3-5.6c-0.3 0-0.5-0.2-0.6-0.5q-0.2-2.1-0.7-4.1c0-0.3 0.2-0.6 0.5-0.7 0.3 0 0.6 0.2 0.7 0.5q0.4 2 0.7 4.1c0 0.3-0.2 0.6-0.5 0.7q-0.1 0-0.1 0zm-117.4-2.6q-0.1 0-0.1 0c-0.4-0.1-0.6-0.4-0.5-0.7q0.4-2 0.9-4.1c0-0.3 0.4-0.5 0.7-0.4 0.3 0.1 0.5 0.4 0.4 0.7q-0.5 2-0.9 4c0 0.3-0.2 0.5-0.5 0.5zm115.8-5.5c-0.3 0-0.5-0.2-0.6-0.5q-0.5-1.9-1.2-3.9c-0.1-0.3 0-0.6 0.3-0.7 0.3-0.1 0.7 0 0.8 0.3q0.7 2 1.2 4c0.1 0.3-0.1 0.7-0.4 0.7q-0.1 0.1-0.1 0.1zm-113.8-2.5q-0.1 0-0.2 0c-0.3-0.1-0.5-0.5-0.4-0.8q0.6-2 1.4-3.9c0.1-0.3 0.5-0.5 0.8-0.4 0.3 0.2 0.4 0.5 0.3 0.8q-0.8 1.9-1.4 3.9c-0.1 0.2-0.3 0.4-0.5 0.4zm111-5.3c-0.2 0-0.4-0.2-0.5-0.4q-0.8-1.9-1.7-3.7c-0.2-0.3-0.1-0.6 0.2-0.8 0.3-0.1 0.6 0 0.8 0.3q1 1.8 1.8 3.7c0.1 0.3 0 0.7-0.3 0.8q-0.1 0.1-0.3 0.1zm-108-2.4q-0.1 0-0.2-0.1c-0.3-0.1-0.4-0.5-0.3-0.8q0.9-1.8 1.9-3.7c0.2-0.2 0.6-0.3 0.8-0.2 0.3 0.2 0.4 0.6 0.3 0.8q-1.1 1.8-1.9 3.7c-0.1 0.2-0.4 0.3-0.6 0.3zm104.3-5c-0.2 0-0.4-0.1-0.5-0.3q-1.1-1.7-2.3-3.4c-0.2-0.2-0.1-0.6 0.2-0.8 0.2-0.2 0.6-0.1 0.8 0.1q1.2 1.7 2.3 3.5c0.1 0.3 0 0.7-0.2 0.8q-0.2 0.1-0.3 0.1zm-100.2-2.2q-0.1 0-0.3-0.1c-0.3-0.2-0.3-0.5-0.2-0.8q1.2-1.7 2.5-3.4c0.2-0.2 0.5-0.3 0.8-0.1 0.2 0.2 0.3 0.6 0.1 0.8q-1.3 1.7-2.4 3.4c-0.1 0.1-0.3 0.2-0.5 0.2zm95.4-4.5q-0.3 0-0.4-0.2-1.3-1.6-2.7-3.1c-0.2-0.3-0.2-0.6 0-0.9 0.2-0.2 0.6-0.2 0.8 0.1q1.4 1.5 2.8 3.1c0.2 0.3 0.1 0.6-0.1 0.8q-0.2 0.2-0.4 0.2zm-90.3-2q-0.3 0-0.4-0.2c-0.3-0.2-0.3-0.6-0.1-0.8q1.4-1.6 2.9-3c0.2-0.3 0.6-0.2 0.8 0 0.2 0.2 0.2 0.6 0 0.8q-1.4 1.5-2.8 3-0.2 0.2-0.4 0.2zm84.7-4q-0.2 0-0.4-0.2-1.5-1.4-3.1-2.7c-0.2-0.2-0.3-0.6-0.1-0.8 0.2-0.3 0.6-0.3 0.9-0.1q1.6 1.3 3.1 2.7c0.2 0.2 0.2 0.6 0 0.9q-0.2 0.2-0.4 0.2zm-78.9-1.8q-0.2 0-0.4-0.2c-0.2-0.3-0.2-0.6 0.1-0.8q1.5-1.4 3.2-2.6c0.3-0.2 0.6-0.2 0.8 0.1 0.2 0.3 0.2 0.6-0.1 0.8q-1.6 1.2-3.2 2.6-0.2 0.1-0.4 0.1zm72.5-3.4q-0.2 0-0.3-0.2-1.7-1.1-3.4-2.2c-0.3-0.2-0.4-0.5-0.2-0.8 0.1-0.3 0.5-0.4 0.8-0.2q1.7 1.1 3.4 2.3c0.3 0.2 0.4 0.5 0.2 0.8-0.1 0.2-0.3 0.3-0.5 0.3zm-65.9-1.5c-0.1 0-0.3-0.1-0.5-0.3-0.1-0.3 0-0.6 0.2-0.8q1.8-1.1 3.6-2.1c0.3-0.2 0.6-0.1 0.8 0.2 0.2 0.3 0 0.7-0.2 0.8q-1.8 1-3.5 2.1-0.2 0.1-0.4 0.1zm58.9-2.8q-0.2 0-0.3-0.1-1.8-0.9-3.7-1.7c-0.3-0.1-0.4-0.5-0.3-0.8 0.1-0.3 0.5-0.4 0.8-0.3q1.9 0.8 3.7 1.8c0.3 0.1 0.4 0.5 0.3 0.8-0.1 0.2-0.3 0.3-0.5 0.3zm-51.6-1.2c-0.3 0-0.5-0.1-0.6-0.3-0.1-0.3 0-0.6 0.3-0.8q1.9-0.8 3.8-1.6c0.3-0.1 0.7 0.1 0.8 0.4 0.1 0.3 0 0.6-0.4 0.7q-1.9 0.7-3.7 1.6-0.1 0.1-0.2 0zm44-2.1q-0.1 0-0.2 0-1.9-0.7-3.9-1.2c-0.3-0.1-0.5-0.4-0.4-0.7 0.1-0.3 0.4-0.5 0.7-0.4q2 0.5 4 1.2c0.3 0.1 0.5 0.4 0.4 0.7-0.1 0.3-0.4 0.4-0.6 0.4zm-36.4-0.8c-0.2 0-0.5-0.1-0.5-0.4-0.1-0.3 0.1-0.6 0.4-0.7q2-0.6 4-1.1c0.3 0 0.6 0.2 0.7 0.5 0.1 0.3-0.1 0.6-0.5 0.7q-1.9 0.4-3.9 1-0.1 0-0.2 0zm28.5-1.3q-0.1 0-0.1 0-2-0.4-4.1-0.7c-0.3 0-0.5-0.3-0.5-0.6 0.1-0.4 0.4-0.6 0.7-0.5q2.1 0.2 4.1 0.6c0.3 0.1 0.5 0.4 0.5 0.7-0.1 0.3-0.3 0.5-0.6 0.5zm-20.5-0.5c-0.2 0-0.5-0.2-0.5-0.5-0.1-0.3 0.1-0.6 0.5-0.6q2-0.3 4.1-0.5c0.3 0 0.6 0.2 0.6 0.5 0 0.4-0.2 0.6-0.5 0.7q-2.1 0.1-4.1 0.4 0 0-0.1 0zm12.3-0.5q0 0 0 0-2-0.1-4.1-0.1 0 0 0 0c-0.3 0-0.6-0.3-0.6-0.6 0-0.3 0.3-0.6 0.6-0.6q2.1 0 4.2 0.1c0.3 0 0.5 0.3 0.5 0.6 0 0.3-0.3 0.6-0.6 0.6zm-3.3 107.5q-1.9 0-3.8-0.2c-0.3 0-0.5-0.3-0.5-0.6 0-0.3 0.3-0.6 0.6-0.6q1.8 0.2 3.7 0.2h0.4q0 0 0 0c0.3 0 0.6 0.3 0.6 0.6 0 0.3-0.3 0.6-0.6 0.6zm4.4-0.2c-0.3 0-0.5-0.3-0.5-0.6-0.1-0.3 0.2-0.6 0.5-0.6q2-0.2 4-0.6c0.3 0 0.6 0.2 0.7 0.5 0.1 0.3-0.2 0.6-0.5 0.7q-2 0.4-4.1 0.6 0 0-0.1 0zm-12.2-0.5q-0.1 0-0.1 0-2.1-0.3-4.1-0.8c-0.3-0.1-0.5-0.5-0.4-0.8 0.1-0.3 0.4-0.5 0.7-0.4q2 0.5 4 0.9c0.3 0 0.5 0.3 0.4 0.6 0 0.3-0.2 0.5-0.5 0.5zm20.3-1c-0.2 0-0.5-0.2-0.5-0.5-0.1-0.3 0.1-0.6 0.4-0.7q1.9-0.5 3.8-1.2c0.3-0.2 0.7 0 0.8 0.3 0.1 0.3-0.1 0.7-0.4 0.8q-1.9 0.7-3.9 1.3-0.1 0-0.2 0zm-28.3-1q-0.1 0-0.2-0.1-1.9-0.7-3.8-1.5c-0.3-0.2-0.5-0.5-0.3-0.8 0.1-0.3 0.5-0.4 0.8-0.3q1.8 0.8 3.7 1.5c0.3 0.1 0.5 0.5 0.4 0.8-0.1 0.2-0.3 0.4-0.6 0.4zm36-1.9c-0.2 0-0.4-0.1-0.5-0.3-0.2-0.3 0-0.7 0.3-0.8q1.8-0.9 3.5-1.9c0.3-0.2 0.7-0.1 0.8 0.2 0.2 0.3 0.1 0.6-0.2 0.8q-1.8 1-3.6 1.9-0.2 0.1-0.3 0.1zm-43.4-1.6q-0.2 0-0.3 0-1.8-1.1-3.6-2.3c-0.2-0.1-0.3-0.5-0.1-0.8 0.2-0.2 0.5-0.3 0.8-0.1q1.7 1.1 3.4 2.1c0.3 0.2 0.4 0.6 0.3 0.8-0.1 0.2-0.3 0.3-0.5 0.3zm50.5-2.6c-0.2 0-0.4-0.1-0.5-0.2-0.2-0.3-0.1-0.7 0.1-0.9q1.7-1.1 3.3-2.5c0.2-0.2 0.6-0.1 0.8 0.1 0.2 0.3 0.2 0.6-0.1 0.8q-1.6 1.4-3.3 2.6-0.1 0.1-0.3 0.1zm-57.3-2q-0.2 0-0.4-0.2-1.6-1.3-3.1-2.8c-0.2-0.2-0.2-0.6 0-0.8 0.2-0.2 0.6-0.2 0.8 0q1.5 1.4 3.1 2.7c0.2 0.2 0.2 0.6 0 0.8q-0.2 0.3-0.4 0.3zm63.5-3.3q-0.2 0-0.4-0.2c-0.2-0.2-0.2-0.6 0-0.8q1.5-1.5 2.8-3.1c0.2-0.2 0.5-0.2 0.8 0 0.2 0.2 0.3 0.5 0.1 0.8q-1.4 1.6-2.8 3.1-0.2 0.2-0.5 0.2zm-69.4-2.5q-0.2 0-0.4-0.2-1.4-1.6-2.6-3.3c-0.2-0.3-0.1-0.6 0.1-0.8 0.3-0.2 0.7-0.2 0.8 0.1q1.2 1.7 2.6 3.2c0.2 0.3 0.1 0.6-0.1 0.8q-0.2 0.2-0.4 0.2zm74.7-3.9q-0.2 0-0.3-0.1c-0.3-0.2-0.4-0.5-0.2-0.8q1.2-1.7 2.2-3.5c0.2-0.2 0.5-0.3 0.8-0.2 0.3 0.2 0.4 0.5 0.2 0.8q-1 1.8-2.2 3.6c-0.1 0.1-0.3 0.2-0.5 0.2zm-79.5-2.8c-0.2 0-0.4-0.1-0.5-0.3q-1.1-1.8-2-3.7c-0.1-0.3 0-0.6 0.3-0.8 0.3-0.1 0.7 0 0.8 0.3q0.9 1.8 1.9 3.6c0.2 0.3 0.1 0.6-0.2 0.8q-0.1 0.1-0.3 0.1zm83.6-4.4q-0.1 0-0.3 0c-0.2-0.1-0.4-0.5-0.2-0.8q0.8-1.9 1.5-3.8c0.1-0.3 0.5-0.4 0.8-0.3 0.3 0.1 0.4 0.4 0.3 0.7q-0.7 2-1.6 3.9c-0.1 0.2-0.3 0.3-0.5 0.3zm-87.2-3.1c-0.2 0-0.4-0.1-0.5-0.3q-0.7-2-1.3-4c-0.1-0.3 0.1-0.7 0.4-0.8 0.3 0 0.6 0.1 0.7 0.4q0.6 2 1.3 3.9c0.1 0.3 0 0.7-0.3 0.8q-0.2 0-0.3 0zm90-4.6q-0.1 0-0.2-0.1c-0.3 0-0.5-0.4-0.4-0.7q0.5-1.9 0.9-4c0-0.3 0.3-0.5 0.7-0.5 0.3 0.1 0.5 0.4 0.4 0.7q-0.3 2.1-0.8 4.1c-0.1 0.3-0.4 0.5-0.6 0.5zm-92.2-3.3c-0.3 0-0.5-0.2-0.6-0.5q-0.4-2.1-0.6-4.2c0-0.3 0.2-0.6 0.6-0.6 0.3 0 0.6 0.2 0.6 0.5q0.2 2.1 0.6 4.1c0 0.3-0.2 0.6-0.5 0.7q0 0-0.1 0zm93.6-4.9q0 0-0.1 0c-0.3 0-0.5-0.3-0.5-0.6q0.2-2.1 0.2-4.1 0-0.8 0-1.5c-0.1-0.3 0.2-0.6 0.5-0.6 0.4 0 0.6 0.2 0.6 0.5q0.1 0.8 0.1 1.6 0 2.1-0.2 4.2c0 0.3-0.3 0.5-0.6 0.5zm-94.4-3.4c-0.3 0-0.6-0.2-0.6-0.5q0-0.4 0-0.8 0-1.7 0.1-3.4c0-0.4 0.3-0.6 0.6-0.6 0.3 0 0.6 0.3 0.6 0.7q-0.1 1.6-0.1 3.3 0 0.4 0 0.7c0 0.4-0.3 0.6-0.6 0.6q0 0 0 0zm94.2-6.4c-0.3 0-0.5-0.2-0.5-0.5q-0.3-2-0.7-4c-0.1-0.3 0.1-0.7 0.5-0.7 0.3-0.1 0.6 0.1 0.7 0.4q0.4 2.1 0.6 4.2c0.1 0.3-0.2 0.6-0.5 0.6q0 0-0.1 0zm-93.7-1.8q0 0 0 0c-0.4-0.1-0.6-0.4-0.5-0.7q0.3-2.1 0.8-4.1c0.1-0.3 0.4-0.5 0.7-0.4 0.3 0.1 0.5 0.4 0.4 0.7q-0.5 2-0.8 4c0 0.3-0.3 0.5-0.6 0.5zm92.1-6.3c-0.3 0-0.5-0.1-0.6-0.4q-0.6-1.9-1.3-3.8c-0.1-0.4 0-0.7 0.3-0.8 0.3-0.1 0.6 0 0.8 0.3q0.7 2 1.3 4c0.1 0.3 0 0.6-0.4 0.7q0 0-0.1 0zm-90.1-1.7q-0.1 0-0.2-0.1c-0.3-0.1-0.4-0.4-0.3-0.7q0.6-2 1.5-3.9c0.1-0.3 0.5-0.4 0.8-0.3 0.3 0.1 0.4 0.5 0.3 0.8q-0.9 1.8-1.5 3.8c-0.1 0.2-0.3 0.4-0.6 0.4zm87-5.9c-0.2 0-0.4-0.2-0.5-0.4q-0.9-1.8-2-3.5c-0.1-0.3-0.1-0.7 0.2-0.9 0.3-0.1 0.7 0 0.8 0.2q1.1 1.8 2.1 3.7c0.1 0.3 0 0.6-0.3 0.8q-0.1 0.1-0.3 0.1zm-83.6-1.7q-0.2 0-0.3-0.1c-0.3-0.1-0.4-0.5-0.2-0.8q1-1.8 2.1-3.5c0.2-0.3 0.6-0.4 0.8-0.2 0.3 0.2 0.4 0.5 0.2 0.8q-1.1 1.7-2.1 3.5c-0.1 0.2-0.3 0.3-0.5 0.3zm79.3-5.4q-0.3 0-0.4-0.2-1.3-1.7-2.6-3.2c-0.2-0.2-0.2-0.6 0-0.8 0.3-0.2 0.7-0.2 0.9 0q1.4 1.6 2.6 3.3c0.2 0.2 0.1 0.6-0.1 0.8q-0.2 0.1-0.4 0.1zm-74.8-1.5q-0.2 0-0.3-0.1c-0.3-0.2-0.3-0.6-0.1-0.8q1.3-1.6 2.7-3.2c0.3-0.2 0.6-0.2 0.9 0 0.2 0.2 0.2 0.6 0 0.9q-1.4 1.4-2.7 3-0.2 0.2-0.5 0.2zm69.4-4.7q-0.3 0-0.4-0.1-1.5-1.4-3.1-2.7c-0.3-0.2-0.3-0.6-0.1-0.8 0.2-0.3 0.6-0.3 0.8-0.1q1.7 1.3 3.2 2.7c0.2 0.2 0.2 0.6 0 0.8q-0.2 0.2-0.4 0.2zm-63.7-1.2q-0.2 0-0.4-0.2c-0.2-0.3-0.2-0.6 0-0.9q1.6-1.3 3.3-2.6c0.3-0.2 0.6-0.1 0.8 0.2 0.2 0.2 0.1 0.6-0.1 0.8q-1.7 1.2-3.2 2.5-0.2 0.2-0.4 0.2zm57.2-3.9q-0.1 0-0.3-0.1-1.7-1.1-3.5-2.1c-0.2-0.2-0.3-0.5-0.2-0.8 0.2-0.3 0.5-0.4 0.8-0.3q1.8 1 3.6 2.2c0.2 0.2 0.3 0.6 0.1 0.8-0.1 0.2-0.3 0.3-0.5 0.3zm-50.5-1c-0.2 0-0.4-0.1-0.6-0.3-0.1-0.3 0-0.6 0.2-0.8q1.8-1.1 3.7-2c0.3-0.2 0.6 0 0.8 0.2 0.1 0.3 0 0.7-0.3 0.8q-1.8 0.9-3.5 2-0.2 0.1-0.3 0.1zm43.3-3q-0.1 0-0.2 0-1.9-0.8-3.8-1.5c-0.3-0.1-0.5-0.4-0.4-0.7 0.1-0.3 0.5-0.5 0.8-0.4q2 0.7 3.9 1.5c0.3 0.1 0.4 0.5 0.3 0.8-0.1 0.2-0.3 0.3-0.6 0.3zm-36-0.7c-0.2 0-0.5-0.1-0.5-0.3-0.2-0.4 0-0.7 0.3-0.8q1.9-0.8 3.9-1.4c0.3-0.1 0.7 0.1 0.8 0.4 0 0.4-0.1 0.7-0.4 0.8q-2 0.5-3.9 1.3-0.1 0-0.2 0zm28.3-1.9q-0.1 0-0.2 0-2-0.5-4-0.8c-0.3 0-0.5-0.3-0.5-0.7 0.1-0.3 0.4-0.5 0.7-0.5q2.1 0.4 4.1 0.8c0.3 0.1 0.5 0.4 0.4 0.8 0 0.2-0.3 0.4-0.5 0.4zm-20.4-0.4c-0.3 0-0.5-0.2-0.6-0.5-0.1-0.3 0.1-0.6 0.5-0.7q2-0.4 4.1-0.6c0.3 0 0.6 0.2 0.6 0.5 0.1 0.4-0.2 0.6-0.5 0.7q-2 0.2-4 0.6-0.1 0-0.1 0zm12.2-0.8q0 0 0 0-2-0.1-4.1-0.1c-0.3 0-0.5-0.2-0.6-0.6 0-0.3 0.3-0.6 0.6-0.6q2.1 0 4.2 0.1c0.3 0 0.5 0.3 0.5 0.6 0 0.3-0.3 0.6-0.6 0.6zm-4.7 83.3q0 0 0 0-2.1-0.1-4.2-0.4c-0.3-0.1-0.5-0.4-0.5-0.7 0.1-0.3 0.4-0.6 0.7-0.5q2 0.3 4 0.4c0.4 0 0.6 0.3 0.6 0.6 0 0.4-0.3 0.6-0.6 0.6zm4.1 0c-0.3 0-0.6-0.3-0.6-0.6 0-0.3 0.2-0.6 0.6-0.6q2-0.1 4-0.5c0.3-0.1 0.6 0.2 0.7 0.5 0 0.3-0.2 0.6-0.5 0.7q-2.1 0.3-4.2 0.5 0 0 0 0zm-12.2-1.3q-0.1 0-0.1-0.1-2.1-0.6-4-1.4c-0.3-0.1-0.4-0.4-0.3-0.7 0.1-0.3 0.5-0.5 0.8-0.4q1.8 0.8 3.8 1.4c0.3 0.1 0.5 0.4 0.4 0.7-0.1 0.3-0.3 0.5-0.6 0.5zm20.3-0.2c-0.3 0-0.5-0.2-0.6-0.4-0.1-0.3 0.1-0.7 0.4-0.8q1.9-0.6 3.8-1.4c0.3-0.1 0.6 0 0.8 0.3 0.1 0.3 0 0.7-0.3 0.8q-2 0.8-4 1.5 0 0-0.1 0zm-27.8-3q-0.2 0-0.3-0.1-1.8-1.1-3.5-2.3c-0.3-0.2-0.4-0.6-0.2-0.8 0.2-0.3 0.6-0.3 0.8-0.2q1.7 1.2 3.4 2.2c0.3 0.2 0.4 0.6 0.3 0.9-0.1 0.1-0.3 0.3-0.5 0.3zm35.3-0.3c-0.2 0-0.4-0.1-0.5-0.3-0.2-0.3-0.1-0.7 0.2-0.8q1.7-1.1 3.3-2.3c0.3-0.2 0.7-0.1 0.9 0.1 0.2 0.3 0.1 0.7-0.2 0.9q-1.6 1.2-3.4 2.3-0.2 0.1-0.3 0.1zm-42-4.6q-0.2 0-0.4-0.2-1.5-1.4-2.9-3c-0.2-0.2-0.2-0.6 0.1-0.8 0.2-0.2 0.6-0.2 0.8 0q1.3 1.6 2.8 3c0.3 0.2 0.3 0.6 0.1 0.8q-0.2 0.2-0.5 0.2zm48.5-0.4q-0.2 0-0.4-0.2c-0.2-0.2-0.2-0.6 0-0.8q1.5-1.4 2.8-3c0.2-0.2 0.6-0.3 0.8-0.1 0.3 0.2 0.3 0.6 0.1 0.9q-1.4 1.6-2.9 3-0.2 0.2-0.4 0.2zm-53.8-5.9c-0.2 0-0.4-0.1-0.5-0.2q-1.2-1.8-2.1-3.6c-0.2-0.3-0.1-0.7 0.2-0.8 0.3-0.2 0.7-0.1 0.8 0.2q0.9 1.8 2.1 3.5c0.1 0.3 0.1 0.6-0.2 0.8q-0.1 0.1-0.3 0.1zm59.1-0.4q-0.2 0-0.3-0.1c-0.3-0.2-0.4-0.6-0.2-0.9q1.1-1.7 2-3.5c0.1-0.3 0.5-0.4 0.8-0.3 0.3 0.2 0.4 0.5 0.2 0.8q-0.9 1.9-2 3.7c-0.1 0.2-0.3 0.3-0.5 0.3zm-62.9-6.9c-0.2 0-0.5-0.1-0.6-0.4q-0.7-1.9-1.2-4c-0.1-0.3 0.1-0.6 0.4-0.7 0.3-0.1 0.7 0.1 0.7 0.4q0.5 2 1.2 3.9c0.2 0.3 0 0.6-0.3 0.8q-0.1 0-0.2 0zm66.5-0.5q-0.1 0-0.2-0.1c-0.3-0.1-0.4-0.4-0.3-0.7q0.7-2 1.1-3.9c0.1-0.4 0.4-0.5 0.7-0.5 0.4 0.1 0.6 0.4 0.5 0.7q-0.5 2.1-1.2 4.1c-0.1 0.2-0.3 0.4-0.6 0.4zm-68.5-7.5c-0.3 0-0.5-0.2-0.6-0.5q-0.3-2.1-0.3-4.2c0-0.3 0.3-0.6 0.6-0.6q0 0 0 0c0.3 0 0.6 0.2 0.6 0.6q0 2 0.3 4c0 0.3-0.2 0.6-0.5 0.7q-0.1 0-0.1 0zm70.4-0.6q0 0-0.1 0c-0.3 0-0.5-0.3-0.5-0.6q0.3-2.1 0.3-4.1 0-0.6-0.1-1.1c0-0.4 0.3-0.6 0.6-0.7 0.3 0 0.6 0.3 0.6 0.6q0 0.6 0 1.2 0 2.1-0.2 4.2c0 0.3-0.3 0.5-0.6 0.5zm-70.5-7.7q-0.1 0-0.1 0c-0.3 0-0.6-0.3-0.5-0.6q0.2-2.1 0.6-4.2c0.1-0.3 0.4-0.5 0.7-0.4 0.3 0 0.5 0.4 0.5 0.7q-0.5 2-0.7 4c0 0.3-0.2 0.5-0.5 0.5zm70.4-1.7c-0.3 0-0.6-0.2-0.6-0.5q-0.3-2-0.8-4c-0.1-0.3 0.1-0.6 0.4-0.7 0.3-0.1 0.6 0.1 0.7 0.4q0.5 2 0.8 4.1c0.1 0.3-0.1 0.7-0.4 0.7q-0.1 0-0.1 0zm-68.7-6.3q-0.1 0-0.2-0.1c-0.3-0.1-0.5-0.4-0.3-0.7q0.6-2 1.5-3.9c0.2-0.3 0.5-0.4 0.8-0.3 0.3 0.1 0.4 0.5 0.3 0.8q-0.9 1.8-1.5 3.8c-0.1 0.2-0.3 0.4-0.6 0.4zm66.5-1.7c-0.2 0-0.4-0.1-0.5-0.3q-0.8-1.9-1.7-3.7c-0.2-0.3-0.1-0.7 0.2-0.8 0.3-0.2 0.7-0.1 0.8 0.2q1 1.9 1.8 3.8c0.1 0.3 0 0.7-0.3 0.8q-0.2 0-0.3 0zm-62.9-5.8q-0.2 0-0.4-0.1c-0.2-0.2-0.3-0.5-0.1-0.8q1.1-1.8 2.4-3.4c0.2-0.3 0.6-0.3 0.8-0.1 0.3 0.2 0.3 0.6 0.1 0.8q-1.3 1.6-2.3 3.3c-0.2 0.2-0.3 0.3-0.5 0.3zm59-1.4c-0.2 0-0.3-0.1-0.4-0.3q-1.2-1.7-2.6-3.2c-0.2-0.2-0.1-0.6 0.1-0.8 0.2-0.2 0.6-0.2 0.8 0q1.4 1.6 2.6 3.3c0.2 0.3 0.1 0.7-0.1 0.9q-0.2 0.1-0.4 0.1zm-53.9-5q-0.2 0-0.4-0.2c-0.2-0.2-0.2-0.6 0-0.8q1.5-1.5 3.1-2.8c0.3-0.2 0.7-0.2 0.9 0.1 0.2 0.2 0.1 0.6-0.1 0.8q-1.6 1.3-3.1 2.7-0.2 0.2-0.4 0.2zm48.5-1.2q-0.2 0-0.4-0.2-1.5-1.3-3.2-2.5c-0.2-0.2-0.3-0.6-0.1-0.8 0.2-0.3 0.5-0.3 0.8-0.2q1.7 1.3 3.3 2.7c0.2 0.2 0.2 0.5 0 0.8q-0.2 0.2-0.4 0.2zm-42-3.9c-0.2 0-0.4-0.1-0.5-0.3-0.2-0.3-0.1-0.6 0.2-0.8q1.8-1.1 3.7-2c0.2-0.1 0.6 0 0.7 0.3 0.2 0.3 0 0.7-0.3 0.8q-1.8 0.8-3.5 1.9-0.2 0.1-0.3 0.1zm35.3-0.9q-0.2 0-0.3 0-1.8-1-3.7-1.8c-0.3-0.1-0.4-0.4-0.3-0.7 0.1-0.3 0.5-0.5 0.8-0.4q1.9 0.8 3.8 1.8c0.2 0.2 0.4 0.5 0.2 0.8-0.1 0.2-0.3 0.3-0.5 0.3zm-27.9-2.6c-0.2 0-0.5-0.1-0.5-0.4-0.1-0.3 0-0.6 0.3-0.7q2-0.7 4.1-1.1c0.3 0 0.6 0.2 0.7 0.5 0 0.3-0.2 0.6-0.5 0.7q-2 0.4-3.9 1-0.1 0-0.2 0zm20.3-0.4q-0.1 0-0.2-0.1-1.9-0.5-3.9-0.8c-0.4 0-0.6-0.3-0.5-0.7 0-0.3 0.3-0.5 0.6-0.5q2.1 0.3 4.1 0.9c0.3 0.1 0.5 0.4 0.4 0.7 0 0.3-0.3 0.5-0.5 0.5zm-12.2-1.2c-0.3 0-0.6-0.2-0.6-0.5-0.1-0.3 0.2-0.6 0.5-0.6q1.5-0.2 3-0.2 0.6 0 1.2 0.1c0.3 0 0.6 0.2 0.6 0.6-0.1 0.3-0.3 0.5-0.7 0.5-0.3 0-0.7 0-1.1 0q-1.5 0-2.9 0.1 0 0 0 0z"/></svg>