<svg version="1.2" xmlns="http://www.w3.org/2000/svg" viewBox="0 0 16 20" width="16" height="20"><style>.a{fill:#fe3e57}</style><path class="a" d="m16 17.3q0 0 0 0c0 1.5-1.3 2.7-3 2.7h-10c-1.6 0-3-1.2-3-2.7q0 0 0 0l1.2-12.9c0-0.3 0.2-0.5 0.5-0.5h2.4c0-2.2 1.7-3.9 3.9-3.9 2.2 0 3.9 1.7 4 3.9h2.3c0.3 0 0.5 0.2 0.6 0.5l1.1 12.9zm-8-16.2c1.6 0 2.8 1.3 2.8 2.8h-5.6c0-1.5 1.3-2.8 2.8-2.8zm5 17.8h-10c-1 0-1.9-0.7-1.9-1.5l1.1-12.4h1.9v1.7c0 0.3 0.2 0.5 0.5 0.5 0.3 0 0.6-0.2 0.6-0.5v-1.7h5.6v1.7c0 0.3 0.3 0.5 0.6 0.5 0.3 0 0.6-0.2 0.6-0.5v-1.7h1.8l1.1 12.4c0 0.8-0.9 1.5-1.9 1.5zm0 0"/></svg>