<svg version="1.2" xmlns="http://www.w3.org/2000/svg" viewBox="0 0 20 20" width="20" height="20"><style>.a{fill:#8d8d8d}</style><path class="a" d="m17.9 5.3c0.4-0.2 0.9-0.1 1.1 0.3q1 2.1 1 4.4c0 5.5-4.5 10-10 10-5.5 0-10-4.5-10-10 0-5.5 4.5-10 10-10 2.3 0 4.5 0.8 6.2 2.2 0.4 0.2 0.4 0.8 0.1 1.1-0.2 0.4-0.8 0.5-1.1 0.2-1.5-1.2-3.3-1.8-5.2-1.8-4.6 0-8.3 3.7-8.3 8.3 0 4.6 3.7 8.3 8.3 8.3 4.6 0 8.3-3.7 8.3-8.3q0-1.9-0.8-3.6c-0.2-0.4 0-0.9 0.4-1.1zm0 0m-7.9-2c0.5 0 0.8 0.4 0.8 0.9v5h3.4c0.4 0 0.8 0.3 0.8 0.8 0 0.5-0.4 0.8-0.8 0.8h-4.2c-0.5 0-0.8-0.3-0.8-0.8v-5.8c0-0.5 0.3-0.9 0.8-0.9zm0 0"/></svg>