<svg version="1.2" xmlns="http://www.w3.org/2000/svg" viewBox="0 0 60 59" width="60" height="59"><style>.a{fill:#fe3e57}.b{fill:#fff}</style><path class="a" d="m0 0h60v60h-60z"/><path class="b" d="m42.4 29.7c0.8 0.7 0.8 1.7 0.1 2.5l-4.2 4.8q-0.2 0.3-0.6 0.6 0 0 0 0-1 0.6-2.5 0.6h-6.2q-0.6 0-1.3 0.1h-0.7l0.3 0.3q0.2 0.2 0.2 0.4 0 0.2-0.2 0.3l-3.5 3.5q-0.1 0.2-0.3 0.2-0.2 0-0.4-0.1l-5.9-5.6q-0.2-0.1-0.2-0.3 0-0.2 0.1-0.4l3.6-3.6q0.1-0.1 0.3-0.1 0 0 0 0 0.2 0 0.4 0.1l0.7 0.7c0.3-0.4 0.7-0.9 1.3-1.4 1.5-1.2 3.3-1.5 5.1-1q1.1 0.3 2.2 0.3h4.1c0.6 0 1.1 0.2 1.4 0.6q0.2 0.1 0.2 0.3l2.9-2.8c0.5-0.4 1-0.6 1.6-0.6 0.6 0 1.1 0.2 1.5 0.6zm-18.9 12.1l-5.3-4.9 2.9-2.8 5.2 4.9zm18.2-10.2l-4.1 4.7q-0.2 0.3-0.5 0.4-0.8 0.5-2 0.5h-6.1q-0.7 0-1.4 0.1l-1.5 0.2-3.2-3.1c0.2-0.3 0.6-0.8 1.2-1.3q1.8-1.5 4.1-0.9 1.2 0.4 2.5 0.4h4.1c0.7 0 0.9 0.6 0.9 0.9 0 0.3-0.1 0.6-0.2 0.7q-0.3 0.3-0.7 0.3h-3.6c-0.3 0-0.5 0.2-0.5 0.5 0 0.3 0.2 0.5 0.5 0.5h3.6c0.5 0 1.1-0.2 1.4-0.6 0.3-0.4 0.5-0.8 0.5-1.3l3.3-3.2c0.5-0.5 1.3-0.4 1.7 0 0.2 0.2 0.5 0.6 0 1.2zm0 0m-12.1 3.3c0.1 0.3-0.1 0.5-0.3 0.6q-0.1 0-0.2 0c-0.2 0-0.4-0.1-0.5-0.4 0-0.3 0.1-0.5 0.4-0.6 0.3 0 0.6 0.1 0.6 0.4zm0 0m-9.2-6.4c-0.6 0-1.2-0.5-1.2-1.2v-2.3c0-1 0.6-1.9 1.5-2.3-0.5-0.5-0.7-1.1-0.7-1.8 0-1.6 1.3-2.9 2.9-2.9 1.7 0 3 1.3 3 2.9 0 0.7-0.3 1.3-0.7 1.8q0.6 0.3 0.9 0.8 0.4-0.5 1-0.8c-0.4-0.5-0.7-1.1-0.7-1.8 0-1.6 1.3-2.9 3-2.9 1.6 0 2.9 1.3 2.9 2.9 0 0.7-0.2 1.3-0.7 1.8q0.6 0.3 1 0.8 0.4-0.5 0.9-0.8c-0.4-0.5-0.6-1.1-0.6-1.8 0-1.6 1.3-2.9 2.9-2.9 1.6 0 3 1.3 3 2.9 0 0.7-0.3 1.3-0.7 1.8 0.8 0.4 1.4 1.3 1.4 2.3v2.3c0 0.7-0.5 1.2-1.2 1.2h-5q-0.4 0-0.7-0.2-0.3 0.2-0.7 0.2h-5q-0.4 0-0.8-0.2-0.3 0.2-0.7 0.2h-5zm15.4-9.5c1.1 0 1.9 0.8 1.9 1.9 0 1-0.8 1.9-1.9 1.9-1.1 0-1.9-0.9-1.9-1.9 0-1.1 0.8-1.9 1.9-1.9zm-1.3 4.4q0.6 0.3 1.3 0.3 0.7 0 1.3-0.3c0.8 0.2 1.4 0.8 1.4 1.6v2.3c0 0.1-0.1 0.2-0.2 0.2h-5c-0.1 0-0.2-0.1-0.2-0.2v-2.3c0-0.8 0.6-1.4 1.4-1.6zm-5.1-4.4c1 0 1.9 0.8 1.9 1.9 0 1-0.9 1.9-1.9 1.9-1.1 0-2-0.9-2-1.9 0-1.1 0.9-1.9 2-1.9zm-1.4 4.4q0.6 0.3 1.4 0.3 0.7 0 1.3-0.3c0.8 0.2 1.4 0.8 1.4 1.6v2.3c0 0.1-0.1 0.2-0.2 0.2h-5c-0.1 0-0.2-0.1-0.2-0.2v-2.3c0-0.8 0.5-1.4 1.3-1.6zm-5.1-4.4c1.1 0 2 0.8 2 1.9 0 1-0.9 1.9-2 1.9-1 0-1.9-0.9-1.9-1.9 0-1.1 0.9-1.9 1.9-1.9zm-2.7 6c0-0.8 0.6-1.4 1.4-1.6q0.6 0.3 1.3 0.3 0.8 0 1.4-0.3c0.8 0.2 1.3 0.8 1.3 1.6v2.3c0 0.1-0.1 0.2-0.2 0.2h-5c-0.1 0-0.2-0.1-0.2-0.2zm0 0"/></svg>