<svg version="1.2" xmlns="http://www.w3.org/2000/svg" viewBox="0 0 130 130" width="130" height="130"><style>.a{opacity:.2;fill:#fe3e57}.b{opacity:.6;fill:#fe3e57}.c{fill:#fe3e57}.d{fill:#fff}</style><path class="a" d="m65 0c35.9 0 65 29.1 65 65 0 35.9-29.1 65-65 65-35.9 0-65-29.1-65-65 0-35.9 29.1-65 65-65z"/><path class="b" d="m65 10c30.4 0 55 24.6 55 55 0 30.4-24.6 55-55 55-30.4 0-55-24.6-55-55 0-30.4 24.6-55 55-55z"/><path class="c" d="m65 20c24.9 0 45 20.1 45 45 0 24.9-20.1 45-45 45-24.9 0-45-20.1-45-45 0-24.9 20.1-45 45-45z"/><path class="d" d="m71.8 63.1c0.8 0.5 1.2 1.2 1.2 1.9 0 0.7-0.4 1.4-1.2 1.9l-11.8 7.6c-0.6 0.3-1.1 0.5-1.6 0.5-0.8 0-1.4-0.7-1.4-1.8v-16.4c0-1.1 0.6-1.8 1.4-1.8 0.5 0 1 0.2 1.6 0.5l11.8 7.6"/></svg>