<?xml version="1.0" encoding="UTF-8"?>
<svg xmlns="http://www.w3.org/2000/svg" xmlns:xlink="http://www.w3.org/1999/xlink" width="17px" height="14px" viewBox="0 0 17 14" version="1.1">
<g id="surface1">
<path style=" stroke:none;fill-rule:nonzero;fill:rgb(0%,0%,0%);fill-opacity:1;" d="M 15.253906 4.148438 C 15.261719 4.273438 15.261719 4.398438 15.261719 4.523438 C 15.261719 8.316406 11.757812 12.683594 5.351562 12.683594 C 3.375 12.683594 1.542969 12.214844 0 11.398438 C 0.28125 11.425781 0.550781 11.433594 0.839844 11.433594 C 2.46875 11.433594 3.96875 10.980469 5.167969 10.207031 C 3.636719 10.179688 2.351562 9.355469 1.910156 8.21875 C 2.125 8.242188 2.339844 8.261719 2.566406 8.261719 C 2.878906 8.261719 3.191406 8.226562 3.484375 8.164062 C 1.886719 7.898438 0.691406 6.742188 0.691406 5.347656 L 0.691406 5.3125 C 1.152344 5.527344 1.695312 5.660156 2.265625 5.675781 C 1.328125 5.160156 0.710938 4.28125 0.710938 3.285156 C 0.710938 2.753906 0.882812 2.265625 1.1875 1.839844 C 2.902344 3.578125 5.480469 4.71875 8.371094 4.839844 C 8.316406 4.628906 8.285156 4.40625 8.285156 4.183594 C 8.285156 2.601562 9.835938 1.316406 11.769531 1.316406 C 12.773438 1.316406 13.675781 1.660156 14.3125 2.222656 C 15.101562 2.097656 15.855469 1.855469 16.523438 1.527344 C 16.265625 2.195312 15.714844 2.753906 14.992188 3.109375 C 15.695312 3.046875 16.375 2.886719 17 2.664062 C 16.527344 3.234375 15.933594 3.738281 15.253906 4.148438 Z M 15.253906 4.148438 "/>
</g>
</svg>
